<svg xmlns="http://www.w3.org/2000/svg" xmlns:xlink="http://www.w3.org/1999/xlink" width="20" height="20" version="1.1" viewBox="0 0 15 15"><path fill="#4dc2f8" d="M3.070833 2.964612C2.67039 3.360438 2.143915 3.603446 1.582905 3.651402 1.021894 3.699358 .461814 3.549231 0 3.227111 1.484493 2.609042 2.697183 1.477691 3.416666 .039612 3.694385 .495623 3.811236 1.031565 3.748545 1.561795 3.685854 2.092026 3.44724 2.58594 3.070833 2.964612Z" transform="matrix(1,0,0,-1,10.041748,4.564453)"/><path fill="#4dc2f8" d="M3.875848 3.380816C3.415947 3.746075 2.838253 3.930359 2.251795 3.898887 1.665337 3.867415 1.110683 3.622364 .692514 3.209983 .277797 2.79252 .032177 2.236394 .002945 1.648677-.026287 1.06096 .162935 .483205 .534181 .02665 1.202735 1.514136 2.390868 2.706712 3.875848 3.380816Z" transform="matrix(1,0,0,-1,.882568,4.810547)"/><path fill="#4dc2f8" d="M5.156497 11.788797C4.068631 11.661716 3.038518 11.230929 2.184048 10.545742 1.329577 9.860554 .68527 8.948645 .324864 7.914377-.035543 6.880109-.097489 5.765268 .146115 4.697438 .389719 3.629609 .92903 2.651934 1.70233 1.876298L.63983 .813798C.601255 .774401 .570816 .727792 .550253 .676632 .52969 .625472 .519405 .570763 .519986 .515628 .520566 .460493 .532 .406013 .553636 .355297 .575271 .304582 .606684 .258624 .64608 .220048 .685477 .181472 .732086 .151033 .783246 .130471 .834406 .109908 .889115 .099623 .94425 .100203 .999385 .100783 1.053865 .112218 1.104581 .133853 1.155297 .155489 1.201255 .186901 1.23983 .226297L2.348164 1.334631C3.361718 .567645 4.599438 .155378 5.87047 .161403 7.141502 .167426 8.375258 .591406 9.381497 1.367964L10.523164 .226297C10.602873 .158036 10.705404 .122367 10.810269 .126418 10.915134 .130468 11.014609 .173941 11.088816 .248146 11.163021 .322352 11.206492 .421827 11.210543 .526692 11.214594 .631557 11.178925 .734089 11.110664 .813798L9.98983 1.917964C10.830925 2.779544 11.3848 3.880288 11.575457 5.069157 11.766112 6.258025 11.584208 7.476765 11.054702 8.558145 10.525195 9.639524 9.674033 10.530556 8.618009 11.108977 7.561985 11.687399 6.352843 11.924868 5.156497 11.788797ZM6.481497 1.034631C5.445909 .898996 4.393844 1.09106 3.472983 1.583862 2.552123 2.076665 1.808699 2.845464 1.347071 3.782341 .885443 4.719218 .728786 5.777135 .899091 6.807589 1.069396 7.838043 1.558113 8.789298 2.296638 9.527823 3.035164 10.266349 3.986418 10.755065 5.016872 10.92537 6.047326 11.095675 7.105243 10.939019 8.04212 10.47739 8.978997 10.015762 9.747796 9.27234 10.240599 8.351479 10.733401 7.430618 10.925466 6.378553 10.78983 5.342965 10.646744 4.250483 10.146805 3.235855 9.367705 2.456756 8.588607 1.677656 7.573979 1.177718 6.481497 1.034631Z" transform="matrix(1,0,0,-1,1.676758,13.4921879)"/><path fill="#4dc2f8" d="M3.275 .741146 .75 1.991146V5.257812C.75 5.357269 .710491 5.452652 .640165 5.522978 .569839 5.593304 .474456 5.632812 .375 5.632812 .275544 5.632812 .180162 5.593304 .109835 5.522978 .039509 5.452652 0 5.357269 0 5.257812V1.507812L2.941667 .049479C3.031178 .005829 3.134362-.000475 3.22852 .031953 3.322679 .064381 3.4001 .132885 3.44375 .222396 3.487401 .311907 3.493705 .415091 3.461277 .509249 3.428849 .603408 3.360344 .680829 3.270833 .72448L3.275 .741146Z" transform="matrix(1,0,0,-1,7.108398,9.216797)"/></svg>