<svg xmlns="http://www.w3.org/2000/svg" width="24" height="24" fill="none" viewBox="0 0 24 24"><path stroke="#354052" stroke-linecap="round" stroke-linejoin="round" stroke-width="2" d="M11 18.0039H6.657C4.085 17.9999 2 15.9929 2 13.5169C2 11.0419 4.085 9.03488 6.657 9.03488C7.05 7.27288 8.451 5.83488 10.332 5.26188C12.212 4.68988 14.288 5.06888 15.776 6.26188C17.264 7.45188 17.938 9.26888 17.546 11.0309H18.536M20.2 20.1999L22 21.9999M15 17.9999C15 18.7955 15.3161 19.5586 15.8787 20.1212C16.4413 20.6838 17.2044 20.9999 18 20.9999C18.7956 20.9999 19.5587 20.6838 20.1213 20.1212C20.6839 19.5586 21 18.7955 21 17.9999C21 17.2042 20.6839 16.4412 20.1213 15.8786C19.5587 15.316 18.7956 14.9999 18 14.9999C17.2044 14.9999 16.4413 15.316 15.8787 15.8786C15.3161 16.4412 15 17.2042 15 17.9999Z"/></svg>