<svg width="20" height="20" viewBox="0 0 20 20" fill="none" xmlns="http://www.w3.org/2000/svg">
<path d="M11.25 14.1667H3.33337C3.78749 13.9095 4.17488 13.5493 4.46436 13.1151C4.75385 12.6809 4.93733 12.1848 5.00004 11.6667V9.16667C5.04967 8.10923 5.38612 7.08523 5.97333 6.20442C6.56054 5.32361 7.37637 4.61919 8.33337 4.16667C8.33337 3.72464 8.50897 3.30072 8.82153 2.98816C9.13409 2.67559 9.55801 2.5 10 2.5C10.4421 2.5 10.866 2.67559 11.1786 2.98816C11.4911 3.30072 11.6667 3.72464 11.6667 4.16667C12.6237 4.61919 13.4395 5.32361 14.0267 6.20442C14.614 7.08523 14.9504 8.10923 15 9.16667V10M7.50004 14.1667V15C7.50003 15.4282 7.61002 15.8493 7.81947 16.2228C8.02892 16.5963 8.3308 16.9098 8.69618 17.1331C9.06156 17.3565 9.47818 17.4822 9.90611 17.4983C10.334 17.5144 10.7589 17.4203 11.14 17.225M15.8334 13.3333L14.1667 15.8333H17.5L15.8334 18.3333" stroke="black" stroke-width="1.5" stroke-linecap="round" stroke-linejoin="round"/>
</svg>
