<svg width="25" height="24" viewBox="0 0 25 24" fill="none" xmlns="http://www.w3.org/2000/svg">
<path d="M12.5 7.99994V20.9999M12.5 7.99994C12.1383 6.50934 11.5154 5.23501 10.7127 4.34311C9.91003 3.45121 8.96469 2.98314 8 2.99995C7.33696 2.99995 6.70107 3.26334 6.23223 3.73218C5.76339 4.20102 5.5 4.83691 5.5 5.49995C5.5 6.16299 5.76339 6.79887 6.23223 7.26772C6.70107 7.73656 7.33696 7.99995 8 7.99995M12.5 7.99994C12.8617 6.50934 13.4846 5.23501 14.2873 4.34311C15.09 3.45121 16.0353 2.98314 17 2.99995C17.663 2.99995 18.2989 3.26334 18.7678 3.73218C19.2366 4.20102 19.5 4.83691 19.5 5.49995C19.5 6.16299 19.2366 6.79887 18.7678 7.26772C18.2989 7.73656 17.663 7.99995 17 7.99995M19.5 11.9999V18.9999C19.5 19.5304 19.2893 20.0391 18.9142 20.4142C18.5391 20.7892 18.0304 20.9999 17.5 20.9999H7.5C6.96957 20.9999 6.46086 20.7892 6.08579 20.4142C5.71071 20.0391 5.5 19.5304 5.5 18.9999V11.9999M3.5 8.99994C3.5 8.73472 3.60536 8.48037 3.79289 8.29283C3.98043 8.1053 4.23478 7.99994 4.5 7.99994H20.5C20.7652 7.99994 21.0196 8.1053 21.2071 8.29283C21.3946 8.48037 21.5 8.73472 21.5 8.99994V10.9999C21.5 11.2652 21.3946 11.5195 21.2071 11.707C21.0196 11.8946 20.7652 11.9999 20.5 11.9999H4.5C4.23478 11.9999 3.98043 11.8946 3.79289 11.707C3.60536 11.5195 3.5 11.2652 3.5 10.9999V8.99994Z" stroke="#2CC62A" stroke-width="2" stroke-linecap="round" stroke-linejoin="round"/>
</svg>
