<svg xmlns="http://www.w3.org/2000/svg" width="24" height="26" fill="none" viewBox="0 0 24 26"><path stroke="#000" stroke-linecap="round" stroke-linejoin="round" stroke-width="2" d="M3.66667 19.6667C4.37391 19.6667 5.05219 19.9476 5.55229 20.4477C6.05238 20.9478 6.33333 21.6261 6.33333 22.3333C6.33333 23.0406 6.05238 23.7189 5.55229 24.219C5.05219 24.719 4.37391 25 3.66667 25C2.95942 25 2.28115 24.719 1.78105 24.219C1.28095 23.7189 1 23.0406 1 22.3333C1 21.6261 1.28095 20.9478 1.78105 20.4477C2.28115 19.9476 2.95942 19.6667 3.66667 19.6667ZM3.66667 19.6667H18.3333M3.66667 19.6667V1H2M18.3333 19.6667C19.0406 19.6667 19.7189 19.9476 20.219 20.4477C20.719 20.9478 21 21.6261 21 22.3333C21 23.0406 20.719 23.7189 20.219 24.219C19.7189 24.719 19.0406 25 18.3333 25C17.6261 25 16.9478 24.719 16.4477 24.219C15.9476 23.7189 15.6667 23.0406 15.6667 22.3333C15.6667 21.6261 15.9476 20.9478 16.4477 20.4477C16.9478 19.9476 17.6261 19.6667 18.3333 19.6667ZM3.66667 3.66667L22.3333 5L21 14.3333H3.66667"/></svg>