<svg width="32" height="33" viewBox="0 0 32 33" fill="none" xmlns="http://www.w3.org/2000/svg">
<path d="M22.6667 12.4998V9.83317C22.6667 9.12593 22.3857 8.44765 21.8856 7.94755C21.3855 7.44746 20.7072 7.1665 20 7.1665H6.66667C5.95942 7.1665 5.28115 7.44746 4.78105 7.94755C4.28095 8.44765 4 9.12593 4 9.83317V17.8332C4 18.5404 4.28095 19.2187 4.78105 19.7188C5.28115 20.2189 5.95942 20.4998 6.66667 20.4998H9.33333M9.33333 15.1665C9.33333 14.4593 9.61428 13.781 10.1144 13.2809C10.6145 12.7808 11.2928 12.4998 12 12.4998H25.3333C26.0406 12.4998 26.7189 12.7808 27.219 13.2809C27.719 13.781 28 14.4593 28 15.1665V23.1665C28 23.8737 27.719 24.552 27.219 25.0521C26.7189 25.5522 26.0406 25.8332 25.3333 25.8332H12C11.2928 25.8332 10.6145 25.5522 10.1144 25.0521C9.61428 24.552 9.33333 23.8737 9.33333 23.1665V15.1665ZM16 19.1665C16 19.8737 16.281 20.552 16.781 21.0521C17.2811 21.5522 17.9594 21.8332 18.6667 21.8332C19.3739 21.8332 20.0522 21.5522 20.5523 21.0521C21.0524 20.552 21.3333 19.8737 21.3333 19.1665C21.3333 18.4593 21.0524 17.781 20.5523 17.2809C20.0522 16.7808 19.3739 16.4998 18.6667 16.4998C17.9594 16.4998 17.2811 16.7808 16.781 17.2809C16.281 17.781 16 18.4593 16 19.1665Z" stroke="white" stroke-width="2" stroke-linecap="round" stroke-linejoin="round"/>
</svg>
