<svg width="12" height="12" viewBox="0 0 12 12" fill="none" xmlns="http://www.w3.org/2000/svg">
<path d="M3.02331 0.281467C2.60423 0.0320068 2.10845 -0.0557467 1.6292 0.0347112C1.14995 0.125169 0.720265 0.387603 0.420959 0.772658C0.121652 1.15771 -0.0266511 1.63885 0.00394123 2.12559C0.0345335 2.61232 0.241914 3.07111 0.587078 3.41566L3.17133 6.00182L0.587078 8.58798L0.421062 8.77599C0.110208 9.17799 -0.0359682 9.68325 0.0122237 10.1891C0.0604156 10.695 0.299362 11.1636 0.68053 11.4997C1.0617 11.8357 1.5565 12.0142 2.06445 11.9986C2.5724 11.9831 3.0554 11.7749 3.41535 11.4161L6.0016 8.83199L8.58785 11.4161L8.77587 11.5822C9.17789 11.893 9.68316 12.0392 10.1891 11.991C10.695 11.9428 11.1635 11.7039 11.4996 11.3227C11.8357 10.9415 12.0141 10.4468 11.9986 9.93883C11.9831 9.43089 11.7749 8.94791 11.4161 8.58798L8.83188 6.00182L11.4161 3.41566L11.5821 3.22765C11.893 2.82564 12.0392 2.32038 11.991 1.81451C11.9428 1.30863 11.7038 0.840064 11.3227 0.503976C10.9415 0.167888 10.4467 -0.0105173 9.93875 0.00499284C9.4308 0.020503 8.9478 0.228767 8.58785 0.587485L6.0016 3.17164L3.41535 0.587485L3.22733 0.421475L3.02331 0.281467Z" fill="#FF4D45"/>
</svg>
