<svg width="28" height="28" viewBox="0 0 28 28" fill="none" xmlns="http://www.w3.org/2000/svg">
<path d="M20.6667 2.45333C22.6777 3.61447 24.3506 5.2807 25.5198 7.28707C26.6889 9.29343 27.3138 11.5704 27.3326 13.8925C27.3513 16.2145 26.7633 18.5013 25.6267 20.5263C24.4901 22.5513 22.8443 24.2443 20.8523 25.4378C18.8603 26.6312 16.5912 27.2838 14.2695 27.3308C11.9478 27.3777 9.65407 26.8176 7.61541 25.7057C5.57675 24.5938 3.86383 22.9687 2.64623 20.9914C1.42862 19.014 0.748551 16.7529 0.673339 14.432L0.666672 14L0.673339 13.568C0.748009 11.2653 1.41807 9.02128 2.61819 7.05466C3.81831 5.08803 5.50754 3.46593 7.52119 2.34651C9.53485 1.22708 11.8042 0.648528 14.108 0.667249C16.4118 0.685971 18.6715 1.30133 20.6667 2.45333ZM12.0147 10.1867C11.7353 10.0204 11.4048 9.96187 11.0854 10.0222C10.7659 10.0825 10.4795 10.2574 10.2799 10.5141C10.0804 10.7708 9.98156 11.0915 10.002 11.416C10.0223 11.7405 10.1606 12.0463 10.3907 12.276L12.1133 14L10.3907 15.724L10.28 15.8493C10.0728 16.1173 9.97535 16.4541 10.0075 16.7914C10.0396 17.1286 10.1989 17.441 10.453 17.665C10.7071 17.889 11.0369 18.008 11.3755 17.9976C11.7141 17.9873 12.0361 17.8485 12.276 17.6093L14 15.8867L15.724 17.6093L15.8493 17.72C16.1173 17.9272 16.4541 18.0247 16.7914 17.9925C17.1286 17.9604 17.441 17.8011 17.665 17.547C17.8891 17.2929 18.008 16.9631 17.9976 16.6245C17.9873 16.2859 17.8485 15.9639 17.6093 15.724L15.8867 14L17.6093 12.276L17.72 12.1507C17.9272 11.8827 18.0247 11.5459 17.9925 11.2086C17.9604 10.8714 17.8011 10.559 17.547 10.335C17.293 10.111 16.9631 9.99202 16.6245 10.0024C16.2859 10.0127 15.9639 10.1515 15.724 10.3907L14 12.1133L12.276 10.3907L12.1507 10.28L12.0147 10.1867Z" fill="black"/>
</svg>
