<svg width="20" height="20" viewBox="0 0 20 20" fill="none" xmlns="http://www.w3.org/2000/svg">
<path d="M10 6.00043V19.0004M10 6.00043C9.63828 4.50983 9.01545 3.2355 8.21274 2.3436C7.41003 1.4517 6.46469 0.98363 5.5 1.00044C4.83696 1.00044 4.20107 1.26383 3.73223 1.73267C3.26339 2.20151 3 2.8374 3 3.50044C3 4.16348 3.26339 4.79936 3.73223 5.2682C4.20107 5.73705 4.83696 6.00044 5.5 6.00044M10 6.00043C10.3617 4.50983 10.9846 3.2355 11.7873 2.3436C12.59 1.4517 13.5353 0.98363 14.5 1.00044C15.163 1.00044 15.7989 1.26383 16.2678 1.73267C16.7366 2.20151 17 2.8374 17 3.50044C17 4.16348 16.7366 4.79936 16.2678 5.2682C15.7989 5.73705 15.163 6.00044 14.5 6.00044M17 10.0004V17.0004C17 17.5309 16.7893 18.0396 16.4142 18.4146C16.0391 18.7897 15.5304 19.0004 15 19.0004H5C4.46957 19.0004 3.96086 18.7897 3.58579 18.4146C3.21071 18.0396 3 17.5309 3 17.0004V10.0004M1 7.00043C1 6.73521 1.10536 6.48086 1.29289 6.29332C1.48043 6.10578 1.73478 6.00043 2 6.00043H18C18.2652 6.00043 18.5196 6.10578 18.7071 6.29332C18.8946 6.48086 19 6.73521 19 7.00043V9.00043C19 9.26564 18.8946 9.52 18.7071 9.70753C18.5196 9.89507 18.2652 10.0004 18 10.0004H2C1.73478 10.0004 1.48043 9.89507 1.29289 9.70753C1.10536 9.52 1 9.26564 1 9.00043V7.00043Z" stroke="#2FAAE2" stroke-width="2" stroke-linecap="round" stroke-linejoin="round"/>
</svg>
