<svg xmlns="http://www.w3.org/2000/svg" width="32" height="33" fill="none" viewBox="0 0 32 33"><path stroke="#fff" stroke-linecap="round" stroke-linejoin="round" stroke-width="2" d="M11.9997 16.5001L14.6663 19.1668L19.9997 13.8335M6.6663 10.1001C6.6663 9.32216 6.97535 8.57605 7.52546 8.02595C8.07557 7.47584 8.82167 7.16679 9.59964 7.16679H10.933C11.7075 7.16635 12.4504 6.8596 12.9996 6.31346L13.933 5.38013C14.2056 5.10599 14.5297 4.88845 14.8866 4.74C15.2436 4.59156 15.6264 4.51514 16.013 4.51514C16.3996 4.51514 16.7824 4.59156 17.1393 4.74C17.4963 4.88845 17.8204 5.10599 18.093 5.38013L19.0263 6.31346C19.5756 6.86013 20.3196 7.16679 21.093 7.16679H22.4263C23.2043 7.16679 23.9504 7.47584 24.5005 8.02595C25.0506 8.57605 25.3596 9.32216 25.3596 10.1001V11.4335C25.3596 12.2068 25.6663 12.9508 26.213 13.5001L27.1463 14.4335C27.4204 14.7061 27.638 15.0302 27.7864 15.3871C27.9349 15.7441 28.0113 16.1269 28.0113 16.5135C28.0113 16.9001 27.9349 17.2828 27.7864 17.6398C27.638 17.9968 27.4204 18.3209 27.1463 18.5935L26.213 19.5268C25.6668 20.076 25.3601 20.8189 25.3596 21.5935V22.9268C25.3596 23.7048 25.0506 24.4509 24.5005 25.001C23.9504 25.5511 23.2043 25.8601 22.4263 25.8601H21.093C20.3184 25.8606 19.5755 26.1673 19.0263 26.7135L18.093 27.6468C17.8204 27.9209 17.4963 28.1385 17.1393 28.2869C16.7824 28.4354 16.3996 28.5118 16.013 28.5118C15.6264 28.5118 15.2436 28.4354 14.8866 28.2869C14.5297 28.1385 14.2056 27.9209 13.933 27.6468L12.9996 26.7135C12.4504 26.1673 11.7075 25.8606 10.933 25.8601H9.59964C8.82167 25.8601 8.07557 25.5511 7.52546 25.001C6.97535 24.4509 6.6663 23.7048 6.6663 22.9268V21.5935C6.66586 20.8189 6.35911 20.076 5.81297 19.5268L4.87964 18.5935C4.60551 18.3209 4.38796 17.9968 4.23951 17.6398C4.09107 17.2828 4.01465 16.9001 4.01465 16.5135C4.01465 16.1269 4.09107 15.7441 4.23951 15.3871C4.38796 15.0302 4.60551 14.7061 4.87964 14.4335L5.81297 13.5001C6.35911 12.9509 6.66586 12.208 6.6663 11.4335V10.1001Z"/></svg>