<svg width="24" height="24" viewBox="0 0 24 24" fill="none" xmlns="http://www.w3.org/2000/svg">
<path d="M0.304199 1.6582H1.58487C2.20545 1.6582 2.75405 2.06143 2.93929 2.65371L3.74995 5.24564M3.74995 5.24564L7.16846 16.1756C7.3537 16.7679 7.9023 17.1711 8.52287 17.1711H19.2008C19.8287 17.1711 20.3819 16.7586 20.561 16.1568L23.1456 7.47234C23.4127 6.57509 22.7531 5.66966 21.8171 5.64877L3.74995 5.24564Z" stroke="#4DC2F8" stroke-width="0.9"/>
<path d="M9.48108 22.5721C10.2927 22.5721 10.949 21.9128 10.949 21.1015C10.949 20.2902 10.2927 19.6309 9.48108 19.6309C8.66949 19.6309 8.01318 20.2902 8.01318 21.1015C8.01318 21.9128 8.66949 22.5721 9.48108 22.5721Z" stroke="#4DC2F8" stroke-width="0.755843"/>
<path d="M18.757 22.5721C19.5686 22.5721 20.2249 21.9128 20.2249 21.1015C20.2249 20.2902 19.5686 19.6309 18.757 19.6309C17.9454 19.6309 17.2891 20.2902 17.2891 21.1015C17.2891 21.9128 17.9454 22.5721 18.757 22.5721Z" stroke="#4DC2F8" stroke-width="0.755843"/>
</svg>
