<svg width="22" height="23" viewBox="0 0 22 23" fill="none" xmlns="http://www.w3.org/2000/svg">
<g clip-path="url(#clip0_33_6)">
<path d="M20.9258 7.44188V3.40188C20.9258 1.81187 20.2858 1.17188 18.6958 1.17188H14.6558C13.0658 1.17188 12.4258 1.81187 12.4258 3.40188V7.44188C12.4258 9.03188 13.0658 9.67188 14.6558 9.67188H18.6958C20.2858 9.67188 20.9258 9.03188 20.9258 7.44188ZM9.42578 7.69188V3.15188C9.42578 1.74188 8.78578 1.17188 7.19578 1.17188H3.15578C1.56578 1.17188 0.925781 1.74188 0.925781 3.15188V7.68188C0.925781 9.10188 1.56578 9.66187 3.15578 9.66187H7.19578C8.78578 9.67187 9.42578 9.10188 9.42578 7.69188ZM9.42578 18.9419V14.9019C9.42578 13.3119 8.78578 12.6719 7.19578 12.6719H3.15578C1.56578 12.6719 0.925781 13.3119 0.925781 14.9019V18.9419C0.925781 20.5319 1.56578 21.1719 3.15578 21.1719H7.19578C8.78578 21.1719 9.42578 20.5319 9.42578 18.9419Z" stroke="#4DC2F8" stroke-width="1.2" stroke-linecap="round" stroke-linejoin="round"/>
<path d="M13.9258 14.6719H19.9258M13.9258 18.6719H19.9258" stroke="#4DC2F8" stroke-width="0.7" stroke-linecap="round"/>
</g>
<defs>
<clipPath id="clip0_33_6">
<rect width="22" height="22" fill="white" transform="translate(0 0.5)"/>
</clipPath>
</defs>
</svg>
