<svg xmlns="http://www.w3.org/2000/svg" width="50" height="49" fill="none" viewBox="0 0 50 49"><g filter="url(#filter0_d_5770_4719)"><rect width="39" height="39" x="5.5" y=".5" stroke="#CACACA" rx="6.167" shape-rendering="crispEdges"/><path stroke="#000" stroke-linecap="round" stroke-linejoin="round" stroke-width="1.5" d="M15.0001 6.66602V9.99935M15.0001 18.3327V33.3327M25.0001 6.66602V23.3327M25.0001 31.666V33.3327M35.0001 6.66602V8.33268M35.0001 18.3327V33.3327M11.6667 11.666C11.6667 11.224 11.8423 10.8001 12.1549 10.4875C12.4675 10.1749 12.8914 9.99935 13.3334 9.99935H16.6667C17.1088 9.99935 17.5327 10.1749 17.8453 10.4875C18.1578 10.8001 18.3334 11.224 18.3334 11.666V16.666C18.3334 17.108 18.1578 17.532 17.8453 17.8445C17.5327 18.1571 17.1088 18.3327 16.6667 18.3327H13.3334C12.8914 18.3327 12.4675 18.1571 12.1549 17.8445C11.8423 17.532 11.6667 17.108 11.6667 16.666V11.666ZM21.6667 24.9993C21.6667 24.5573 21.8423 24.1334 22.1549 23.8208C22.4675 23.5083 22.8914 23.3327 23.3334 23.3327H26.6667C27.1088 23.3327 27.5327 23.5083 27.8453 23.8208C28.1578 24.1334 28.3334 24.5573 28.3334 24.9993V29.9993C28.3334 30.4414 28.1578 30.8653 27.8453 31.1779C27.5327 31.4904 27.1088 31.666 26.6667 31.666H23.3334C22.8914 31.666 22.4675 31.4904 22.1549 31.1779C21.8423 30.8653 21.6667 30.4414 21.6667 29.9993V24.9993ZM31.6667 9.99935C31.6667 9.55732 31.8423 9.1334 32.1549 8.82084C32.4675 8.50828 32.8914 8.33268 33.3334 8.33268H36.6667C37.1088 8.33268 37.5327 8.50828 37.8453 8.82084C38.1578 9.1334 38.3334 9.55732 38.3334 9.99935V16.666C38.3334 17.108 38.1578 17.532 37.8453 17.8445C37.5327 18.1571 37.1088 18.3327 36.6667 18.3327H33.3334C32.8914 18.3327 32.4675 18.1571 32.1549 17.8445C31.8423 17.532 31.6667 17.108 31.6667 16.666V9.99935Z"/></g><defs><filter id="filter0_d_5770_4719" width="48.889" height="48.889" x=".556" y="0" color-interpolation-filters="sRGB" filterUnits="userSpaceOnUse"><feFlood flood-opacity="0" result="BackgroundImageFix"/><feColorMatrix in="SourceAlpha" result="hardAlpha" type="matrix" values="0 0 0 0 0 0 0 0 0 0 0 0 0 0 0 0 0 0 127 0"/><feOffset dy="4.444"/><feGaussianBlur stdDeviation="2.222"/><feComposite in2="hardAlpha" operator="out"/><feColorMatrix type="matrix" values="0 0 0 0 0 0 0 0 0 0 0 0 0 0 0 0 0 0 0.04 0"/><feBlend in2="BackgroundImageFix" mode="normal" result="effect1_dropShadow_5770_4719"/><feBlend in="SourceGraphic" in2="effect1_dropShadow_5770_4719" mode="normal" result="shape"/></filter></defs></svg>