<svg width="22" height="26" viewBox="0 0 22 26" fill="none" xmlns="http://www.w3.org/2000/svg">
<path d="M1.66669 3.66664C2.91288 2.44513 4.58834 1.76093 6.33335 1.76093C8.07837 1.76093 9.75383 2.44513 11 3.66664C12.2462 4.88815 13.9217 5.57235 15.6667 5.57235C17.4117 5.57235 19.0872 4.88815 20.3334 3.66664V15.6666C19.0872 16.8882 17.4117 17.5724 15.6667 17.5724C13.9217 17.5724 12.2462 16.8882 11 15.6666C9.75383 14.4451 8.07837 13.7609 6.33335 13.7609C4.58834 13.7609 2.91288 14.4451 1.66669 15.6666V3.66664Z" fill="#4DC2F8"/>
<path d="M1.66669 25V15.6666V25Z" fill="#4DC2F8"/>
<path d="M1.66669 15.6666C2.91288 14.4451 4.58834 13.7609 6.33335 13.7609C8.07837 13.7609 9.75383 14.4451 11 15.6666C12.2462 16.8882 13.9217 17.5724 15.6667 17.5724C17.4117 17.5724 19.0872 16.8882 20.3334 15.6666V3.66664C19.0872 4.88815 17.4117 5.57235 15.6667 5.57235C13.9217 5.57235 12.2462 4.88815 11 3.66664C9.75383 2.44513 8.07837 1.76093 6.33335 1.76093C4.58834 1.76093 2.91288 2.44513 1.66669 3.66664V15.6666ZM1.66669 15.6666V25" stroke="black" stroke-width="2" stroke-linecap="round" stroke-linejoin="round"/>
</svg>
