<svg xmlns="http://www.w3.org/2000/svg" xmlns:xlink="http://www.w3.org/1999/xlink" version="1.1" width="21pt" height="21pt" viewBox="0 0 21 21">
<path transform="matrix(1,0,0,-1,11.5,10.5)" d="M3.5 3C3.5 2.171573 2.828427 1.5 2 1.5V.5C3.380712 .5 4.5 1.619288 4.5 3H3.5ZM2 1.5C1.171573 1.5 .5 2.171573 .5 3H-.5C-.5 1.619288 .619288 .5 2 .5V1.5ZM.5 3C.5 3.828427 1.171573 4.5 2 4.5V5.5C.619288 5.5-.5 4.380712-.5 3H.5ZM2 4.5C2.828427 4.5 3.5 3.828427 3.5 3H4.5C4.5 4.380712 3.380712 5.5 2 5.5V4.5Z" fill="#4dc2f8"/>
<path transform="matrix(1,0,0,-1,5.5,10.5)" d="M3.5 3C3.5 2.171573 2.828427 1.5 2 1.5V.5C3.380712 .5 4.5 1.619288 4.5 3H3.5ZM2 1.5C1.171573 1.5 .5 2.171573 .5 3H-.5C-.5 1.619288 .619288 .5 2 .5V1.5ZM.5 3C.5 3.828427 1.171573 4.5 2 4.5V5.5C.619288 5.5-.5 4.380712-.5 3H.5ZM2 4.5C2.828427 4.5 3.5 3.828427 3.5 3H4.5C4.5 4.380712 3.380712 5.5 2 5.5V4.5Z" fill="#4dc2f8"/>
<path transform="matrix(1,0,0,-1,5.5,16.5)" d="M3.5 3C3.5 2.171573 2.828427 1.5 2 1.5V.5C3.380712 .5 4.5 1.619288 4.5 3H3.5ZM2 1.5C1.171573 1.5 .5 2.171573 .5 3H-.5C-.5 1.619288 .619288 .5 2 .5V1.5ZM.5 3C.5 3.828427 1.171573 4.5 2 4.5V5.5C.619288 5.5-.5 4.380712-.5 3H.5ZM2 4.5C2.828427 4.5 3.5 3.828427 3.5 3H4.5C4.5 4.380712 3.380712 5.5 2 5.5V4.5Z" fill="#4dc2f8"/>
<path transform="matrix(1,0,0,-1,11.5,16.5)" d="M2.5 5C2.5 5.276143 2.276142 5.5 2 5.5 1.723858 5.5 1.5 5.276143 1.5 5H2.5ZM1.5 1C1.5 .723857 1.723858 .5 2 .5 2.276142 .5 2.5 .723857 2.5 1H1.5ZM4 2.5C4.276143 2.5 4.5 2.723858 4.5 3 4.5 3.276142 4.276143 3.5 4 3.5V2.5ZM0 3.5C-.276142 3.5-.5 3.276142-.5 3-.5 2.723858-.276142 2.5 0 2.5V3.5ZM1.5 5V1H2.5V5H1.5ZM4 3.5H0V2.5H4V3.5Z" fill="#4dc2f8"/>
</svg>
