<svg xmlns="http://www.w3.org/2000/svg" xmlns:android="http://schemas.android.com/apk/res/android" width="24dp" height="23dp" viewportWidth="24" viewportHeight="23">
	<path d="M0.24,1.074H1.521C2.142,1.074 2.69,1.478 2.876,2.07L3.686,4.662M3.686,4.662L7.105,15.592C7.29,16.184 7.839,16.587 8.459,16.587H19.137C19.765,16.587 20.318,16.175 20.497,15.573L23.082,6.889C23.349,5.991 22.689,5.086 21.753,5.065L3.686,4.662Z" stroke-width="0.755843" fill="#00000000" stroke="#37353A"/>
	<path d="M9.417,21.989C10.229,21.989 10.885,21.33 10.885,20.518C10.885,19.707 10.229,19.048 9.417,19.048C8.606,19.048 7.949,19.707 7.949,20.518C7.949,21.33 8.606,21.989 9.417,21.989Z" stroke-width="0.755843" fill="#00000000" stroke="#37353A"/>
	<path d="M18.693,21.989C19.504,21.989 20.161,21.33 20.161,20.518C20.161,19.707 19.504,19.048 18.693,19.048C17.881,19.048 17.225,19.707 17.225,20.518C17.225,21.33 17.881,21.989 18.693,21.989Z" stroke-width="0.755843" fill="#00000000" stroke="#37353A"/>
</svg>
