<svg xmlns="http://www.w3.org/2000/svg" height="24dp" viewportHeight="25" viewportWidth="25" width="24dp" xmlns:android="http://schemas.android.com/apk/res/android">
	<path fill="#00000000" d="M22.279,8.344V4.304C22.279,2.714 21.639,2.074 20.049,2.074H16.009C14.419,2.074 13.779,2.714 13.779,4.304V8.344C13.779,9.934 14.419,10.575 16.009,10.575H20.049C21.639,10.575 22.279,9.934 22.279,8.344ZM10.779,8.594V4.054C10.779,2.644 10.139,2.074 8.549,2.074H4.509C2.919,2.074 2.279,2.644 2.279,4.054V8.584C2.279,10.005 2.919,10.564 4.509,10.564H8.549C10.139,10.575 10.779,10.005 10.779,8.594ZM10.779,19.844V15.804C10.779,14.215 10.139,13.575 8.549,13.575H4.509C2.919,13.575 2.279,14.215 2.279,15.804V19.844C2.279,21.434 2.919,22.074 4.509,22.074H8.549C10.139,22.074 10.779,21.434 10.779,19.844Z" stroke="#37353A" strokeLineCap="round" strokeLineJoin="round" stroke-width="0.7"/>
	<path fill="#00000000" d="M15.279,15.575H21.279M15.279,19.574H21.279" stroke="#37353A" strokeLineCap="round" stroke-width="0.7"/>
</svg>
