<svg xmlns="http://www.w3.org/2000/svg" xmlns:android="http://schemas.android.com/apk/res/android" width="27dp" height="25dp" viewportWidth="27" viewportHeight="25">
	<path d="M13.355,4.5V6.5C13.355,7.6 14.255,8.5 15.355,8.5H17.355M6.855,13H10.855M6.855,17H14.855" strokeLineJoin="round" stroke-width="0.7" fill="#00000000" stroke="#37353A" strokeLineCap="round"/>
	<path d="M20.635,11.927V6.189C20.635,3.98 18.844,2.189 16.635,2.189H7.577C5.367,2.189 3.577,3.98 3.577,6.189V18.813C3.577,21.022 5.367,22.813 7.577,22.813H16.067" stroke-width="0.7" fill="#00000000" stroke="#37353A" strokeLineCap="round"/>
	<path d="M19.38,14.965H22.307" strokeLineJoin="round" stroke-width="0.7" fill="#00000000" stroke="#37353A" strokeLineCap="round"/>
	<path d="M20.844,17.664V19.379M23.844,19.465C23.844,21.121 22.5,22.465 20.844,22.465C19.188,22.465 17.844,21.121 17.844,19.465C17.844,17.809 19.188,16.465 20.844,16.465C22.5,16.465 23.844,17.809 23.844,19.465Z" strokeLineJoin="round" stroke-width="0.7" fill="#00000000" stroke="#37353A" strokeLineCap="round"/>
	<path d="M4.369,3.648m-2.918,0a2.918,2.918 0,1 1,5.837 0a2.918,2.918 0,1 1,-5.837 0" fill="#00000000"/>
	<path d="M4.369,6.688C6.041,6.688 7.409,5.32 7.409,3.648C7.409,1.976 6.041,0.608 4.369,0.608C2.697,0.608 1.329,1.976 1.329,3.648C1.329,5.32 2.697,6.688 4.369,6.688Z" strokeLineJoin="round" stroke-width="0.510713" fill="#00000000" stroke="#37353A" strokeLineCap="round"/>
	<path d="M3.078,3.648L3.938,4.508L5.662,2.788" strokeLineJoin="round" stroke-width="0.510713" fill="#00000000" stroke="#37353A" strokeLineCap="round"/>
</svg>
