<svg xmlns="http://www.w3.org/2000/svg" width="22" height="22" fill="none" viewBox="0 0 22 22"><g id="icon/includes" clip-path="url(#clip0_3319_12821)"><path id="Vector" fill="#2CC62A" d="M16.5002 1.47388C18.1593 2.43182 19.5395 3.80646 20.504 5.46171C21.4686 7.11696 21.9842 8.99543 21.9996 10.9112C22.0151 12.8269 21.53 14.7134 20.5923 16.384C19.6546 18.0547 18.2968 19.4514 16.6534 20.436C15.0099 21.4206 13.1379 21.959 11.2224 21.9977C9.30703 22.0365 7.4147 21.5744 5.73278 20.657C4.05087 19.7397 2.63769 18.3991 1.63315 16.7677C0.628616 15.1364 0.0675511 13.2711 0.00550019 11.3563L0 10.9999L0.00550019 10.6435C0.0671043 8.74377 0.61991 6.89244 1.61002 5.26997C2.60014 3.64751 3.99377 2.30928 5.65505 1.38575C7.31633 0.462226 9.18857 -0.0150819 11.0892 0.00036327C12.9899 0.0158084 14.8541 0.523479 16.5002 1.47388Z"/><path id="Vector_2" fill="#fff" d="M15.6339 7.3905C15.4186 7.16092 15.1323 7.02301 14.8285 7.00263C14.5246 6.98225 14.2243 7.08082 13.9838 7.27982L13.8663 7.3905L9.74978 11.78L8.13342 10.0573L8.01592 9.94659C7.77538 9.74772 7.4751 9.64928 7.17137 9.66972C6.86764 9.69016 6.58134 9.82808 6.36614 10.0576C6.15095 10.2871 6.02164 10.5925 6.00248 10.9165C5.98332 11.2405 6.07561 11.5608 6.26206 11.8173L6.36581 11.9427L8.86597 14.6094L8.98348 14.7201C9.20271 14.9015 9.4723 15 9.74978 15C10.0273 15 10.2968 14.9015 10.5161 14.7201L10.6336 14.6094L15.6339 9.2759L15.7377 9.15056C15.9242 8.89401 16.0166 8.57367 15.9975 8.24962C15.9784 7.92557 15.8491 7.62009 15.6339 7.3905Z"/></g><defs><clipPath id="clip0_3319_12821"><rect width="22" height="22" fill="#fff"/></clipPath></defs></svg>