<svg xmlns="http://www.w3.org/2000/svg" width="24" height="24" fill="none" viewBox="0 0 24 24"><path stroke="#000" stroke-linecap="round" stroke-linejoin="round" stroke-width="2" d="M12 16V16.01M12 13C12.4498 13.0014 12.8868 12.8511 13.2407 12.5735C13.5945 12.2958 13.8444 11.907 13.95 11.4699C14.0557 11.0327 14.0109 10.5727 13.8229 10.1641C13.6349 9.75552 13.3147 9.42222 12.914 9.21804C12.5162 9.01425 12.0611 8.95106 11.6228 9.03876C11.1845 9.12645 10.7888 9.35987 10.5 9.70104M10 20.777C9.12963 20.5796 8.2937 20.253 7.52002 19.808M14 3.22302C15.9882 3.67709 17.7632 4.79271 19.0347 6.38723C20.3061 7.98174 20.9984 9.96067 20.9984 12C20.9984 14.0394 20.3061 16.0183 19.0347 17.6128C17.7632 19.2073 15.9882 20.323 14 20.777M4.57905 17.093C4.03356 16.3005 3.61925 15.4253 3.35205 14.501M3.12402 10.5C3.28402 9.55002 3.59202 8.65002 4.02402 7.82502L4.19302 7.52002M6.90698 4.57902C7.84264 3.93492 8.8923 3.47474 9.99998 3.22302"/></svg>