<svg xmlns="http://www.w3.org/2000/svg" width="24" height="24" fill="none" viewBox="0 0 24 24"><g clip-path="url(#clip0_4036_9999)"><path fill="#235A9F" d="M0 12C-2.34822e-08 13.5759 0.310389 15.1363 0.913445 16.5922C1.5165 18.0481 2.40042 19.371 3.51472 20.4853C4.62902 21.5996 5.95189 22.4835 7.4078 23.0866C8.86371 23.6896 10.4241 24 12 24C13.5759 24 15.1363 23.6896 16.5922 23.0866C18.0481 22.4835 19.371 21.5996 20.4853 20.4853C21.5996 19.371 22.4835 18.0481 23.0866 16.5922C23.6896 15.1363 24 13.5759 24 12C24 10.4241 23.6896 8.86371 23.0866 7.4078C22.4835 5.95189 21.5996 4.62902 20.4853 3.51472C19.371 2.40042 18.0481 1.5165 16.5922 0.913446C15.1363 0.310389 13.5759 0 12 0C10.4241 0 8.86371 0.310389 7.4078 0.913446C5.95189 1.5165 4.62902 2.40042 3.51472 3.51472C2.40042 4.62902 1.5165 5.95189 0.913445 7.4078C0.310389 8.86371 -2.34822e-08 10.4241 0 12Z"/><path fill="#82D8FA" d="M0 12C-2.25038e-08 13.5759 0.297456 15.1363 0.875385 16.5922C1.45331 18.0481 2.3004 19.371 3.36827 20.4853C4.43615 21.5996 5.7039 22.4835 7.09914 23.0866C8.49438 23.6896 9.9898 24 11.5 24C13.0102 24 14.5056 23.6896 15.9009 23.0866C17.2961 22.4835 18.5639 21.5996 19.6317 20.4853C20.6996 19.371 21.5467 18.0481 22.1246 16.5922C22.7025 15.1363 23 13.5759 23 12C23 10.4241 22.7025 8.86371 22.1246 7.4078C21.5467 5.95189 20.6996 4.62902 19.6317 3.51472C18.5639 2.40042 17.2961 1.5165 15.9009 0.913446C14.5056 0.310389 13.0102 0 11.5 0C9.9898 0 8.49438 0.310389 7.09914 0.913446C5.7039 1.5165 4.43615 2.40042 3.36827 3.51472C2.3004 4.62902 1.45331 5.95189 0.875385 7.4078C0.297456 8.86371 -2.25038e-08 10.4241 0 12Z"/><path fill="#235A9F" d="M21 12C21 10.6868 20.7543 9.38642 20.2769 8.17317C19.7994 6.95991 19.0997 5.85752 18.2175 4.92893C17.3354 4.00035 16.2881 3.26375 15.1355 2.7612C13.9829 2.25866 12.7476 2 11.5 2C10.2524 2 9.0171 2.25866 7.86451 2.7612C6.71191 3.26375 5.66464 4.00035 4.78249 4.92893C3.90033 5.85752 3.20056 6.95991 2.72314 8.17317C2.24572 9.38642 2 10.6868 2 12C2 13.3132 2.24572 14.6136 2.72314 15.8268C3.20056 17.0401 3.90033 18.1425 4.78249 19.0711C5.66464 19.9997 6.71191 20.7362 7.86451 21.2388C9.0171 21.7413 10.2524 22 11.5 22C12.7476 22 13.9829 21.7413 15.1355 21.2388C16.2881 20.7362 17.3354 19.9997 18.2175 19.0711C19.0997 18.1425 19.7994 17.0401 20.2769 15.8268C20.7543 14.6136 21 13.3132 21 12Z"/><g filter="url(#filter0_i_4036_9999)"><path fill="#4DC2F8" d="M21 12C21 10.6868 20.7672 9.38642 20.3149 8.17317C19.8626 6.95991 19.1997 5.85752 18.364 4.92893C17.5282 4.00035 16.5361 3.26375 15.4442 2.7612C14.3522 2.25866 13.1819 2 12 2C10.8181 2 9.64778 2.25866 8.55585 2.7612C7.46392 3.26375 6.47177 4.00035 5.63604 4.92893C4.80031 5.85752 4.13737 6.95991 3.68508 8.17317C3.23279 9.38642 3 10.6868 3 12C3 13.3132 3.23279 14.6136 3.68508 15.8268C4.13737 17.0401 4.80031 18.1425 5.63604 19.0711C6.47177 19.9997 7.46392 20.7362 8.55585 21.2388C9.64778 21.7413 10.8181 22 12 22C13.1819 22 14.3522 21.7413 15.4442 21.2388C16.5361 20.7362 17.5282 19.9997 18.364 19.0711C19.1997 18.1425 19.8626 17.0401 20.3149 15.8268C20.7672 14.6136 21 13.3132 21 12Z"/></g><path stroke="#235A9F" stroke-linecap="round" stroke-linejoin="round" stroke-width="1.5" d="M14.1389 13.1667C13.5716 13.1667 13.0276 13.4125 12.6265 13.8501C12.2253 14.2877 12 14.8812 12 15.5M12 15.5V16.1667M12 15.5C12 14.8812 11.7747 14.2877 11.3735 13.8501C10.9724 13.4125 10.4284 13.1667 9.86111 13.1667M12 15.5V8.83333M12 16.1667C12 16.7855 12.2253 17.379 12.6265 17.8166C13.0276 18.2542 13.5716 18.5 14.1389 18.5C14.7062 18.5 15.2502 18.2542 15.6513 17.8166C16.0524 17.379 16.2778 16.7855 16.2778 16.1667V14.9667M12 16.1667C12 16.7855 11.7747 17.379 11.3735 17.8166C10.9724 18.2542 10.4284 18.5 9.86111 18.5C9.29384 18.5 8.74981 18.2542 8.34869 17.8166C7.94757 17.379 7.72222 16.7855 7.72222 16.1667V14.9667M15.3611 15.1667C15.9284 15.1667 16.4724 14.9208 16.8735 14.4832C17.2747 14.0457 17.5 13.4522 17.5 12.8333C17.5 12.2145 17.2747 11.621 16.8735 11.1834C16.4724 10.7458 15.9284 10.5 15.3611 10.5H15.0556M16.2778 10.7V8.83333C16.2778 8.21449 16.0524 7.621 15.6513 7.18342C15.2502 6.74583 14.7062 6.5 14.1389 6.5C13.5716 6.5 13.0276 6.74583 12.6265 7.18342C12.2253 7.621 12 8.21449 12 8.83333M12 8.83333C12 8.21449 11.7747 7.621 11.3735 7.18342C10.9724 6.74583 10.4284 6.5 9.86111 6.5C9.29384 6.5 8.74981 6.74583 8.34869 7.18342C7.94757 7.621 7.72222 8.21449 7.72222 8.83333V10.7M8.63889 15.1667C8.07162 15.1667 7.52759 14.9208 7.12647 14.4832C6.72535 14.0457 6.5 13.4522 6.5 12.8333C6.5 12.2145 6.72535 11.621 7.12647 11.1834C7.52759 10.7458 8.07162 10.5 8.63889 10.5H8.94444"/><path stroke="#fff" stroke-linecap="round" stroke-linejoin="round" stroke-width="1.5" d="M13.6389 12.6667C13.0716 12.6667 12.5276 12.9125 12.1265 13.3501C11.7253 13.7877 11.5 14.3812 11.5 15M11.5 15V15.6667M11.5 15C11.5 14.3812 11.2747 13.7877 10.8735 13.3501C10.4724 12.9125 9.92838 12.6667 9.36111 12.6667M11.5 15V8.33333M11.5 15.6667C11.5 16.2855 11.7253 16.879 12.1265 17.3166C12.5276 17.7542 13.0716 18 13.6389 18C14.2062 18 14.7502 17.7542 15.1513 17.3166C15.5524 16.879 15.7778 16.2855 15.7778 15.6667V14.4667M11.5 15.6667C11.5 16.2855 11.2747 16.879 10.8735 17.3166C10.4724 17.7542 9.92838 18 9.36111 18C8.79384 18 8.24981 17.7542 7.84869 17.3166C7.44757 16.879 7.22222 16.2855 7.22222 15.6667V14.4667M14.8611 14.6667C15.4284 14.6667 15.9724 14.4208 16.3735 13.9832C16.7747 13.5457 17 12.9522 17 12.3333C17 11.7145 16.7747 11.121 16.3735 10.6834C15.9724 10.2458 15.4284 10 14.8611 10H14.5556M15.7778 10.2V8.33333C15.7778 7.71449 15.5524 7.121 15.1513 6.68342C14.7502 6.24583 14.2062 6 13.6389 6C13.0716 6 12.5276 6.24583 12.1265 6.68342C11.7253 7.121 11.5 7.71449 11.5 8.33333M11.5 8.33333C11.5 7.71449 11.2747 7.121 10.8735 6.68342C10.4724 6.24583 9.92838 6 9.36111 6C8.79384 6 8.24981 6.24583 7.84869 6.68342C7.44757 7.121 7.22222 7.71449 7.22222 8.33333V10.2M8.13889 14.6667C7.57162 14.6667 7.02759 14.4208 6.62647 13.9832C6.22535 13.5457 6 12.9522 6 12.3333C6 11.7145 6.22535 11.121 6.62647 10.6834C7.02759 10.2458 7.57162 10 8.13889 10H8.44444"/></g><defs><filter id="filter0_i_4036_9999" width="19" height="20" x="2" y="2" color-interpolation-filters="sRGB" filterUnits="userSpaceOnUse"><feFlood flood-opacity="0" result="BackgroundImageFix"/><feBlend in="SourceGraphic" in2="BackgroundImageFix" mode="normal" result="shape"/><feColorMatrix in="SourceAlpha" result="hardAlpha" type="matrix" values="0 0 0 0 0 0 0 0 0 0 0 0 0 0 0 0 0 0 127 0"/><feOffset dx="-4"/><feGaussianBlur stdDeviation=".5"/><feComposite in2="hardAlpha" k2="-1" k3="1" operator="arithmetic"/><feColorMatrix type="matrix" values="0 0 0 0 0 0 0 0 0 0.392157 0 0 0 0 0.568627 0 0 0 0.04 0"/><feBlend in2="shape" mode="normal" result="effect1_innerShadow_4036_9999"/></filter><clipPath id="clip0_4036_9999"><rect width="24" height="24" fill="#fff"/></clipPath></defs></svg>