<svg width="16" height="16" viewBox="0 0 16 16" fill="none" xmlns="http://www.w3.org/2000/svg">
<path d="M6 12.6667H12.6667V11.3333H6V12.6667ZM6 8.66667H10V7.33333H6V8.66667ZM6 3.33333V4.66667H14V3.33333H6ZM3.33334 3C3.20197 3.00004 3.0719 3.02596 2.95055 3.07627C2.8292 3.12659 2.71895 3.20031 2.62609 3.29323C2.53323 3.38615 2.45959 3.49645 2.40935 3.61783C2.35912 3.73921 2.33329 3.8693 2.33334 4.00067C2.33338 4.13203 2.3593 4.2621 2.40961 4.38345C2.45992 4.5048 2.53364 4.61505 2.62656 4.70791C2.71948 4.80077 2.82978 4.87442 2.95117 4.92465C3.07255 4.97488 3.20264 5.00071 3.334 5.00067C3.59931 5.00058 3.85371 4.8951 4.04125 4.70744C4.22878 4.51978 4.33409 4.26531 4.334 4C4.33391 3.7347 4.22844 3.48029 4.04078 3.29276C3.85311 3.10522 3.59864 2.99991 3.33334 3ZM3.33334 7C3.20197 7.00004 3.0719 7.02596 2.95055 7.07627C2.8292 7.12659 2.71895 7.20031 2.62609 7.29323C2.53323 7.38615 2.45959 7.49645 2.40935 7.61783C2.35912 7.73921 2.33329 7.8693 2.33334 8.00067C2.33338 8.13203 2.3593 8.2621 2.40961 8.38345C2.45992 8.5048 2.53364 8.61505 2.62656 8.70791C2.71948 8.80077 2.82978 8.87442 2.95117 8.92465C3.07255 8.97488 3.20264 9.00071 3.334 9.00067C3.59931 9.00058 3.85371 8.8951 4.04125 8.70744C4.22878 8.51978 4.33409 8.26531 4.334 8C4.33391 7.7347 4.22844 7.48029 4.04078 7.29276C3.85311 7.10522 3.59864 6.99991 3.33334 7ZM3.33334 11C3.20197 11 3.0719 11.026 2.95055 11.0763C2.8292 11.1266 2.71895 11.2003 2.62609 11.2932C2.53323 11.3861 2.45959 11.4964 2.40935 11.6178C2.35912 11.7392 2.33329 11.8693 2.33334 12.0007C2.33338 12.132 2.3593 12.2621 2.40961 12.3835C2.45992 12.5048 2.53364 12.6151 2.62656 12.7079C2.71948 12.8008 2.82978 12.8744 2.95117 12.9246C3.07255 12.9749 3.20264 13.0007 3.334 13.0007C3.59931 13.0006 3.85371 12.8951 4.04125 12.7074C4.22878 12.5198 4.33409 12.2653 4.334 12C4.33391 11.7347 4.22844 11.4803 4.04078 11.2928C3.85311 11.1052 3.59864 10.9999 3.33334 11Z" fill="#4DC2F8"/>
</svg>
