<svg xmlns="http://www.w3.org/2000/svg" width="32" height="32" fill="none" viewBox="0 0 32 32"><path stroke="#000" stroke-linecap="round" stroke-linejoin="round" stroke-width="2" d="M3 16C3 17.7072 3.33625 19.3977 3.98957 20.9749C4.64288 22.5521 5.60045 23.9852 6.80761 25.1924C8.01477 26.3995 9.44788 27.3571 11.0251 28.0104C12.6023 28.6637 14.2928 29 16 29M3 16C3 14.2928 3.33625 12.6023 3.98957 11.0251C4.64288 9.44788 5.60045 8.01477 6.80761 6.80761C8.01477 5.60045 9.44788 4.64288 11.0251 3.98957C12.6023 3.33626 14.2928 3 16 3M3 16H5.88889M16 29C17.7072 29 19.3977 28.6637 20.9749 28.0104C22.5521 27.3571 23.9852 26.3995 25.1924 25.1924C26.3995 23.9852 27.3571 22.5521 28.0104 20.9749C28.6637 19.3977 29 17.7072 29 16M16 29V26.1111M29 16C29 14.2928 28.6637 12.6023 28.0104 11.0251C27.3571 9.44788 26.3995 8.01477 25.1924 6.80761C23.9852 5.60045 22.5521 4.64288 20.9749 3.98957C19.3977 3.33626 17.7072 3 16 3M29 16H26.1111M16 3V5.88889M10.2222 21.7778L13.1111 13.1111L21.7778 10.2222L18.8889 18.8889L10.2222 21.7778Z"/></svg>