<svg xmlns="http://www.w3.org/2000/svg" width="25" height="24" fill="none" viewBox="0 0 25 24"><path fill="#FF4D45" d="M12.492 0C19.0677 0 24.5 5.39166 24.5 11.9014C24.491 18.7929 19.3025 24.0179 12.4741 24C5.64568 23.982 0.466114 18.7051 0.500167 11.8387C0.530635 5.36657 5.96828 0 12.492 0ZM12.4741 21.0058C17.401 21.0201 21.4353 17.0834 21.4514 12.2526C21.4657 6.96669 17.7164 3.08735 12.5745 3.06943C7.43254 3.05151 3.54159 6.9201 3.52905 12.0179C3.52291 13.1963 3.74982 14.3643 4.19673 15.4547C4.64364 16.5451 5.30175 17.5365 6.1332 18.3718C6.96465 19.207 7.95304 19.8697 9.04155 20.3218C10.1301 20.7738 11.2972 21.0063 12.4759 21.0058H12.4741Z"/><path fill="#FF4D45" d="M15.0387 16.6795C14.177 16.5937 13.5726 16.4091 13.0149 16.5042C12.1455 16.6279 11.3005 16.8852 10.5098 17.2671C9.45587 17.8174 8.57172 17.8267 8.04383 17.0377C7.48424 16.1964 7.75844 15.2843 8.80115 14.6258C10.8157 13.3555 12.9738 12.9358 15.2887 13.6074C16.2064 13.8722 16.6205 14.568 16.4601 15.4391C16.4128 15.7826 16.2429 16.0974 15.9816 16.3254C15.7204 16.5534 15.3855 16.6792 15.0387 16.6795Z"/><path fill="#FF4D45" d="M9.01249 7.51347C9.43426 7.51035 9.84052 7.6723 10.1445 7.96474C10.4484 8.25718 10.6259 8.65689 10.639 9.07847C10.6128 9.48303 10.4424 9.86478 10.1586 10.1543C9.87485 10.4439 9.49665 10.6221 9.0927 10.6565C8.68774 10.6518 8.29943 10.4946 8.00522 10.2163C7.71101 9.938 7.53251 9.55902 7.50532 9.15494C7.48778 8.94626 7.51371 8.73622 7.58146 8.53807C7.64922 8.33991 7.75732 8.15796 7.89895 8.00371C8.04059 7.84946 8.21267 7.72625 8.40434 7.64187C8.596 7.55749 8.80308 7.51377 9.01249 7.51347Z"/><path fill="#FF4D45" d="M15.25 10.6399C14.8277 10.6278 14.4269 10.4515 14.1325 10.1484C13.8382 9.84539 13.6737 9.43953 13.6738 9.01709C13.7088 8.61392 13.8905 8.23759 14.1844 7.95946C14.4784 7.68132 14.8642 7.5207 15.2687 7.50806C15.4784 7.50791 15.686 7.55008 15.8791 7.63204C16.0722 7.714 16.2467 7.83406 16.3923 7.98504C16.5379 8.13603 16.6515 8.31483 16.7264 8.51075C16.8013 8.70667 16.8358 8.91568 16.8281 9.12528C16.8112 9.53256 16.6376 9.91757 16.3435 10.1998C16.0494 10.4821 15.6576 10.6398 15.25 10.6399Z"/></svg>