<svg width="24" height="24" viewBox="0 0 24 24" fill="none" xmlns="http://www.w3.org/2000/svg">
<path d="M0 11.871C0 5.37017 5.45242 -0.00894806 12.0358 1.11754e-05C18.5565 1.11754e-05 23.9892 5.39884 24 11.8692C24.0125 18.7391 18.8021 23.9964 11.991 24C5.17998 24.0036 0 18.7696 0 11.871ZM11.9641 21.0094C16.8287 21.0345 20.944 17.0763 20.9709 12.3494C20.9995 7.03838 17.2176 3.09453 12.0735 3.07303C6.96698 3.05153 3.15459 6.86995 3.02375 11.9265C2.90366 16.5907 6.86482 21.0972 11.9641 21.0058V21.0094Z" fill="#FFD063"/>
<path d="M11.9332 16.6686C10.6211 16.6686 9.30912 16.6829 7.99888 16.6686C6.98081 16.6542 6.38574 16.0789 6.38574 15.163C6.38574 14.2471 6.99694 13.643 7.99888 13.6358C10.6803 13.6179 13.3623 13.6179 16.0449 13.6358C17.0432 13.6358 17.606 14.2506 17.5917 15.1952C17.5792 16.1004 17.0361 16.647 16.0556 16.665C14.6737 16.6936 13.3025 16.6686 11.9332 16.6686Z" fill="#FFD063"/>
<path d="M8.87428 10.5513C8.48437 10.5454 8.11097 10.3929 7.82835 10.1242C7.54572 9.85555 7.37458 9.49034 7.34896 9.10123C7.33367 8.90086 7.35989 8.69949 7.42597 8.50972C7.49205 8.31995 7.59658 8.14585 7.73301 7.99831C7.86945 7.85077 8.03485 7.73297 8.21889 7.65227C8.40292 7.57157 8.60163 7.52972 8.80258 7.52931C9.19261 7.52543 9.56953 7.66989 9.85706 7.93346C10.1446 8.19702 10.3212 8.55999 10.3512 8.94888C10.355 9.35371 10.2044 9.74478 9.92997 10.0425C9.65559 10.3402 9.27808 10.5221 8.87428 10.5513Z" fill="#FFD063"/>
<path d="M14.7731 7.52932C14.9673 7.5197 15.1615 7.5488 15.3443 7.61492C15.5271 7.68104 15.695 7.78287 15.8381 7.91447C15.9812 8.04607 16.0967 8.20483 16.1779 8.38149C16.2591 8.55816 16.3043 8.7492 16.311 8.94351C16.3253 9.35051 16.18 9.74698 15.9061 10.0483C15.6322 10.3497 15.2513 10.5321 14.8448 10.5567C14.0562 10.5764 13.2729 9.81102 13.2801 9.02238C13.2992 8.63257 13.4626 8.26381 13.7386 7.98784C14.0146 7.71187 14.3833 7.54844 14.7731 7.52932Z" fill="#FFD063"/>
</svg>
