<svg xmlns="http://www.w3.org/2000/svg" width="40" height="40" fill="none" viewBox="0 0 40 40"><g clip-path="url(#clip0_4274_13547)"><path fill="#2CC62A" d="M39.4825 18.9607L34.586 15.2605L36.3727 9.38735C36.4917 8.99641 36.4204 8.57246 36.1802 8.24193C35.9401 7.9115 35.5585 7.71286 35.1501 7.70533L29.012 7.59331L27.0106 1.78851C26.8774 1.40193 26.5702 1.10034 26.1813 0.974079C25.7928 0.847728 25.3669 0.911312 25.0316 1.14569L19.9998 4.66628L14.968 1.14551C14.633 0.911221 14.2073 0.847547 13.8184 0.973898C13.4294 1.10025 13.1225 1.40184 12.9891 1.78833L10.9878 7.59304L4.84968 7.70515C4.44133 7.71267 4.05992 7.91123 3.81973 8.24175C3.57955 8.57228 3.50808 8.99632 3.62699 9.38716L5.41395 15.2603L0.517467 18.9607C0.191477 19.2069 0 19.5918 0 20.0002C0 20.4086 0.191477 20.7935 0.517467 21.0397L5.41404 24.7399L3.62726 30.613C3.50835 31.004 3.57982 31.4279 3.82001 31.7584C4.06019 32.0889 4.44169 32.2875 4.84995 32.295L10.9881 32.4072L12.9894 38.2119C13.1226 38.5984 13.4297 38.9 13.8185 39.0263C14.2072 39.1527 14.633 39.0891 14.9681 38.8546L19.9999 35.334L25.0319 38.8547C25.2535 39.0097 25.5148 39.0901 25.7789 39.0901C25.9139 39.0901 26.0498 39.0692 26.1815 39.0263C26.5702 38.8999 26.8774 38.5984 27.0106 38.2119L29.0118 32.4072L35.1502 32.295C35.5586 32.2874 35.94 32.0889 36.1801 31.7584C36.4203 31.4278 36.4918 31.0039 36.3728 30.6129L34.5859 24.7399L39.4824 21.0397C39.8084 20.7934 39.9999 20.4085 39.9999 20.0001C39.9999 19.5917 39.8085 19.2068 39.4825 18.9607ZM13.8141 22.9644C13.8141 23.2462 13.5856 23.4746 13.3039 23.4746H12.7474C12.4657 23.4746 12.2372 23.2461 12.2372 22.9644V19.2133C12.2372 18.7913 12.1078 18.4723 11.8421 18.2381C11.573 18.0012 11.1976 17.8809 10.7263 17.8809C10.255 17.8809 9.8795 18.0011 9.61047 18.2381C9.34471 18.4722 9.21546 18.7912 9.21546 19.2132V22.9643C9.21546 23.2461 8.98697 23.4745 8.70524 23.4745H8.14877C7.86705 23.4745 7.63856 23.246 7.63856 22.9643V19.2132C7.63856 18.4289 7.94433 17.7489 8.54751 17.1921C9.14661 16.6391 9.87959 16.3589 10.7263 16.3589C11.573 16.3589 12.3059 16.6391 12.9049 17.1921C13.5081 17.7489 13.8141 18.429 13.8141 19.2133V22.9644ZM21.5812 21.0858C21.4137 21.6224 21.1219 22.0918 20.6886 22.5211C19.9782 23.2315 19.1438 23.5775 18.139 23.5775C17.1344 23.5775 16.3 23.2325 15.588 22.523C14.8758 21.8135 14.5296 20.9778 14.5296 19.9682C14.5296 18.9634 14.8756 18.129 15.5877 17.4169C16.2998 16.7049 17.1343 16.3588 18.139 16.3588C19.0795 16.3588 19.8461 16.6138 20.4173 17.1168C20.8161 17.4682 21.1022 17.7902 21.268 18.0741C21.3379 18.1937 21.3561 18.3367 21.3185 18.47C21.2807 18.6034 21.1904 18.7156 21.0682 18.7811L16.5344 21.2086C16.5868 21.2748 16.6441 21.3391 16.7061 21.401C17.1048 21.7998 17.5735 21.9936 18.1392 21.9936C18.7047 21.9936 19.1746 21.7988 19.5756 21.3978C19.7907 21.1826 19.9478 20.9406 20.0425 20.6781C20.1249 20.4506 20.3558 20.3119 20.5951 20.3465L21.1668 20.4286C21.3148 20.4498 21.4462 20.535 21.5259 20.6613C21.6053 20.788 21.6256 20.9431 21.5812 21.0858ZM32.3614 20.7232C32.3614 21.5215 32.0769 22.2145 31.5157 22.7831C30.9539 23.3525 30.2659 23.6413 29.4708 23.6413C28.6675 23.6413 27.9646 23.3335 27.3773 22.7255C26.79 23.3335 26.0872 23.6413 25.284 23.6413C24.4889 23.6413 23.8008 23.3525 23.2389 22.7829C22.6778 22.2144 22.3933 21.5214 22.3933 20.7232V16.9082C22.3933 16.6264 22.6219 16.398 22.9035 16.398H23.4777C23.7593 16.398 23.9879 16.6264 23.9879 16.9082V20.7232C23.9879 21.1309 24.0994 21.4368 24.3288 21.6584C24.5607 21.8829 24.8731 21.9919 25.284 21.9919C25.6944 21.9919 26.0056 21.8831 26.2349 21.6594C26.4627 21.4375 26.5732 21.1313 26.5732 20.7233V16.9083C26.5732 16.6264 26.8018 16.3981 27.0834 16.3981H27.6713C27.9529 16.3981 28.1815 16.6265 28.1815 16.9083V20.7233C28.1815 21.1313 28.2922 21.4375 28.5198 21.6594C28.7491 21.8832 29.0603 21.992 29.4707 21.992C29.8816 21.992 30.1941 21.883 30.4257 21.6588C30.655 21.4369 30.7668 21.1309 30.7668 20.7234V16.9084C30.7668 16.6265 30.9953 16.3981 31.277 16.3981H31.8511C32.1328 16.3981 32.3613 16.6266 32.3613 16.9084L32.3614 20.7232Z"/><path fill="#2CC62A" d="M18.1389 17.9424C17.5736 17.9424 17.105 18.1372 16.7063 18.5379C16.3357 18.9104 16.1422 19.3404 16.1163 19.8492L19.1719 18.2186C18.8665 18.0352 18.5203 17.9424 18.1389 17.9424Z"/></g><defs><clipPath id="clip0_4274_13547"><rect width="40" height="40" fill="#fff"/></clipPath></defs></svg>