<svg xmlns="http://www.w3.org/2000/svg" width="22" height="24" fill="none" viewBox="0 0 22 24"><path fill="#2FAAE2" d="M20.3333 1.33331V22.6666H4.33329C3.62605 22.6666 2.94777 22.3857 2.44767 21.8856C1.94758 21.3855 1.66663 20.7072 1.66663 20V3.99998C1.66663 3.29274 1.94758 2.61446 2.44767 2.11436C2.94777 1.61426 3.62605 1.33331 4.33329 1.33331H20.3333Z"/><path fill="#2FAAE2" d="M20.3333 17.3333H4.33329C3.62605 17.3333 2.94777 17.6143 2.44767 18.1144C1.94758 18.6145 1.66663 19.2927 1.66663 20"/><path fill="#2FAAE2" d="M6.99996 6.66665H15H6.99996Z"/><path stroke="#000" stroke-linecap="round" stroke-linejoin="round" stroke-width="2" d="M1.66663 20C1.66663 20.7072 1.94758 21.3855 2.44767 21.8856C2.94777 22.3857 3.62605 22.6666 4.33329 22.6666H20.3333V1.33331H4.33329C3.62605 1.33331 2.94777 1.61426 2.44767 2.11436C1.94758 2.61446 1.66663 3.29274 1.66663 3.99998V20ZM1.66663 20C1.66663 19.2927 1.94758 18.6145 2.44767 18.1144C2.94777 17.6143 3.62605 17.3333 4.33329 17.3333H20.3333M6.99996 6.66665H15"/></svg>