<svg xmlns="http://www.w3.org/2000/svg" width="24" height="24" fill="none" viewBox="0 0 24 24"><path fill="#2CC62A" d="M11.9668 24C5.11867 23.991 -0.0107366 18.7893 1.68765e-05 11.8656C0.0107703 5.41496 5.46815 0 11.9776 0C18.5157 0 24.0161 5.43825 24 11.9194C23.991 18.8233 18.8186 24.0107 11.9668 24ZM3.04683 12.1577C2.916 16.1965 6.19043 21.0542 11.9883 21.0631C17.4869 21.0631 20.9496 16.6122 20.9657 12.172C20.9818 6.99537 17.0478 3.0336 11.9561 3.06406C6.86431 3.09452 3.04683 6.9882 3.04683 12.1577Z"/><path fill="#2CC62A" d="M11.9474 18.2625C9.70528 18.2625 7.78041 16.9455 7.03842 14.9171C6.67997 13.9405 6.9972 13.0285 7.79654 12.7328C8.65861 12.4139 9.45078 12.8027 9.84508 13.7918C10.2394 14.7809 10.967 15.2253 11.9778 15.2468C12.9887 15.2683 13.7235 14.7325 14.1483 13.8133C14.6232 12.783 15.4028 12.3799 16.2559 12.7561C17.0445 13.102 17.2972 13.9728 16.9011 14.9816C16.1018 17.0225 14.2307 18.2768 11.9474 18.2625Z"/><path fill="#2CC62A" d="M10.3571 9.06167C10.3576 9.44991 10.2093 9.82359 9.94251 10.1057C9.67575 10.3878 9.31095 10.5568 8.92327 10.5779C8.72282 10.5942 8.52115 10.5689 8.33098 10.5035C8.1408 10.438 7.96622 10.3339 7.81824 10.1977C7.67025 10.0615 7.55207 9.89619 7.47112 9.71208C7.39017 9.52797 7.34822 9.3291 7.34789 9.12798C7.33586 8.9352 7.36356 8.742 7.42926 8.56035C7.49497 8.37871 7.59728 8.2125 7.72986 8.07203C7.86244 7.93155 8.02246 7.8198 8.2 7.74371C8.37754 7.66762 8.56881 7.6288 8.76197 7.62966C9.67781 7.5974 10.3338 8.19422 10.3571 9.06167Z"/><path fill="#2CC62A" d="M16.3096 9.09753C16.3122 9.29825 16.2733 9.49734 16.1954 9.68235C16.1176 9.86737 16.0024 10.0343 15.857 10.1728C15.7117 10.3112 15.5393 10.4182 15.3507 10.487C15.1622 10.5558 14.9614 10.5849 14.7611 10.5725C14.3726 10.5547 14.0048 10.3925 13.7296 10.1176C13.4545 9.84283 13.2918 9.47522 13.2735 9.08678C13.2771 8.88594 13.3211 8.68787 13.4029 8.50442C13.4847 8.32097 13.6027 8.15589 13.7497 8.01904C13.8968 7.8822 14.0699 7.7764 14.2587 7.70796C14.4476 7.63952 14.6483 7.60985 14.8489 7.62072C15.0435 7.61543 15.2372 7.65013 15.4178 7.72269C15.5985 7.79524 15.7624 7.9041 15.8993 8.04253C16.0362 8.18097 16.1433 8.34602 16.2138 8.52749C16.2844 8.70895 16.317 8.90297 16.3096 9.09753Z"/></svg>