<svg xmlns="http://www.w3.org/2000/svg" width="32" height="32" fill="none" viewBox="0 0 32 32"><path stroke="#000" stroke-linecap="round" stroke-linejoin="round" stroke-width="2" d="M26.5773 17.388C26.3255 19.308 25.5559 21.1232 24.3509 22.6389C23.1459 24.1547 21.551 25.3138 19.7373 25.9921C17.9235 26.6703 15.9594 26.842 14.0555 26.4888C12.1516 26.1356 10.3798 25.2708 8.93005 23.9871C7.4803 22.7035 6.40733 21.0494 5.82621 19.2022C5.24509 17.3551 5.17774 15.3846 5.63139 13.5022C6.08503 11.6197 7.04256 9.89617 8.40128 8.51651C9.76 7.13686 11.4686 6.15309 13.344 5.67071C18.5426 4.33737 23.924 7.01337 25.9106 12M26.6666 5.33335V12H20"/></svg>