<svg xmlns="http://www.w3.org/2000/svg" width="33" height="32" fill="none" viewBox="0 0 33 32"><path stroke="#000" stroke-linecap="round" stroke-linejoin="round" stroke-width="2.5" d="M12.3829 14.6667V8C12.3829 6.93913 12.8043 5.92172 13.5544 5.17157C14.3046 4.42143 15.322 4 16.3829 4C17.4437 4 18.4612 4.42143 19.2113 5.17157C19.9614 5.92172 20.3829 6.93913 20.3829 8V14.6667M8.82421 10.6667H23.9429C24.3274 10.6666 24.7073 10.7497 25.0567 10.9103C25.4061 11.0708 25.7166 11.305 25.967 11.5968C26.2173 11.8886 26.4016 12.2311 26.5073 12.6008C26.6129 12.9705 26.6373 13.3586 26.5789 13.7387L24.9055 24.608C24.7603 25.5526 24.2816 26.414 23.5562 27.0362C22.8308 27.6584 21.9066 28.0003 20.9509 28H11.8149C10.8594 28 9.93552 27.6579 9.21038 27.0357C8.48525 26.4136 8.00678 25.5524 7.86155 24.608L6.18821 13.7387C6.12977 13.3586 6.1542 12.9705 6.25982 12.6008C6.36544 12.2311 6.54976 11.8886 6.80014 11.5968C7.05052 11.305 7.36104 11.0708 7.7104 10.9103C8.05977 10.7497 8.43972 10.6666 8.82421 10.6667Z"/></svg>