<svg width="25" height="24" viewBox="0 0 25 24" fill="none" xmlns="http://www.w3.org/2000/svg">
<path d="M4.5 14V11C4.5 8.87827 5.34285 6.84344 6.84315 5.34315C8.34344 3.84285 10.3783 3 12.5 3C14.6217 3 16.6566 3.84285 18.1569 5.34315C19.6571 6.84344 20.5 8.87827 20.5 11V14M4.5 14C4.5 13.4696 4.71071 12.9609 5.08579 12.5858C5.46086 12.2107 5.96957 12 6.5 12H7.5C8.03043 12 8.53914 12.2107 8.91421 12.5858C9.28929 12.9609 9.5 13.4696 9.5 14V17C9.5 17.5304 9.28929 18.0391 8.91421 18.4142C8.53914 18.7893 8.03043 19 7.5 19H6.5C5.96957 19 5.46086 18.7893 5.08579 18.4142C4.71071 18.0391 4.5 17.5304 4.5 17V14ZM20.5 14C20.5 13.4696 20.2893 12.9609 19.9142 12.5858C19.5391 12.2107 19.0304 12 18.5 12H17.5C16.9696 12 16.4609 12.2107 16.0858 12.5858C15.7107 12.9609 15.5 13.4696 15.5 14V17C15.5 17.5304 15.7107 18.0391 16.0858 18.4142C16.4609 18.7893 16.9696 19 17.5 19H18.5M20.5 14V17C20.5 17.5304 20.2893 18.0391 19.9142 18.4142C19.5391 18.7893 19.0304 19 18.5 19M18.5 19C18.5 20.657 15.814 22 12.5 22" stroke="#2FAAE2" stroke-width="2" stroke-linecap="round" stroke-linejoin="round"/>
</svg>
