<svg xmlns="http://www.w3.org/2000/svg" width="20" height="21" fill="none" viewBox="0 0 20 21"><path stroke="#2FAAE2" stroke-linecap="round" stroke-linejoin="round" stroke-width="2" d="M18.984 10.53C19.0938 8.66926 18.6232 6.82033 17.6371 5.23854C16.6511 3.65676 15.1982 2.42016 13.4792 1.69953C11.7601 0.978889 9.85977 0.809769 8.0405 1.21552C6.22123 1.62128 4.57282 2.58188 3.32292 3.96468C2.07303 5.34748 1.28331 7.08425 1.06283 8.93513C0.842345 10.786 1.20198 12.6597 2.09207 14.2974C2.98216 15.9351 4.35878 17.2561 6.03183 18.0778C7.70487 18.8996 9.5918 19.1816 11.432 18.885M10 4.99998V9.99998L13 13M17 14L15 17H19L17 20"/></svg>