<svg width="20" height="20" viewBox="0 0 20 20" fill="none" xmlns="http://www.w3.org/2000/svg">
<path d="M18.942 11.021C19.1466 9.22883 18.808 7.41654 17.9701 5.81918C17.1322 4.22183 15.8336 2.91311 14.2428 2.06278C12.652 1.21245 10.8424 0.859755 9.04873 1.05043C7.25504 1.24111 5.56004 1.96637 4.18357 3.13213C2.8071 4.2979 1.81268 5.85037 1.3293 7.5882C0.845921 9.32602 0.895884 11.169 1.47271 12.8781C2.04954 14.5871 3.12661 16.0835 4.56422 17.1729C6.00183 18.2624 7.73364 18.8948 9.53502 18.988M10 4.99998V9.99998L13 13M13 17L15 19L19 15" stroke="#FF4D45" stroke-width="2" stroke-linecap="round" stroke-linejoin="round"/>
</svg>
